<svg xmlns="http://www.w3.org/2000/svg" version="1.1" xmlns:xlink="http://www.w3.org/1999/xlink" xmlns:svgjs="http://svgjs.dev/svgjs" viewBox="0 0 15.184658165520483 8.056854520398645"><g transform="matrix(1,0,0,1,0.9124540827602425,4.952525437638402)"><rect width="15.184658165520483" height="8.056854520398645" x="-0.9124540827602422" y="-4.952525437638402" fill="#fffef5"></rect><path d="M598 0L598 374L479 111L375 111L256 374L256 0L61 0L61 710L274 710L427 376L581 710L793 710L793 0Z" fill="#390c14" transform="matrix(0.0015,0,0,-0.0015,3.4691249999999987,1.095)" fill-rule="nonzero"></path><path d="M225 710L443 710L669 0L471 0L428 139L239 139L197 0L-2 0ZM397 269L334 519L268 269Z" fill="#390c14" transform="matrix(0.0015,0,0,-0.0015,4.7651249999999985,1.095)" fill-rule="nonzero"></path><path d="M368 -5Q299 -5 236.5 19.5Q174 44 126 91.5Q78 139 50.5 206.5Q23 274 23 361Q23 436 51 500Q79 564 128.5 612.5Q178 661 244 688Q310 715 387 715Q483 715 561 673.5Q639 632 677 560L532 449Q511 491 469 516.5Q427 542 380 542Q345 542 316 528Q287 514 265.5 489Q244 464 232.5 429.5Q221 395 221 354Q221 312 233 278Q245 244 266.5 219.5Q288 195 318 181.5Q348 168 385 168Q432 168 475 191.5Q518 215 553 258L553 68Q473 -5 368 -5ZM543 238L412 238L412 378L704 378L704 0L543 0Z" fill="#390c14" transform="matrix(0.0015,0,0,-0.0015,5.737124999999999,1.095)" fill-rule="nonzero"></path><path d="M61 0L61 710L387 710Q439 710 483 689Q527 668 559 632.5Q591 597 608.5 553Q626 509 626 464Q626 423 614 385Q602 347 579 315.5Q556 284 524 261L674 0L460 0L335 218L256 218L256 0ZM256 388L379 388Q391 388 402 397Q413 406 420.5 423Q428 440 428 464Q428 489 419.5 505.5Q411 522 398.5 531Q386 540 374 540L256 540Z" fill="#390c14" transform="matrix(0.0015,0,0,-0.0015,6.860624999999999,1.095)" fill-rule="nonzero"></path><path d="M567 170L567 0L61 0L61 710L558 710L558 540L256 540L256 440L514 440L514 282L256 282L256 170Z" fill="#390c14" transform="matrix(0.0015,0,0,-0.0015,7.888124999999999,1.095)" fill-rule="nonzero"></path><path d="M368 -5Q299 -5 236.5 19.5Q174 44 126 91.5Q78 139 50.5 206.5Q23 274 23 361Q23 436 51 500Q79 564 128.5 612.5Q178 661 244 688Q310 715 387 715Q483 715 561 673.5Q639 632 677 560L532 449Q511 491 469 516.5Q427 542 380 542Q345 542 316 528Q287 514 265.5 489Q244 464 232.5 429.5Q221 395 221 354Q221 312 233 278Q245 244 266.5 219.5Q288 195 318 181.5Q348 168 385 168Q432 168 475 191.5Q518 215 553 258L553 68Q473 -5 368 -5ZM543 238L412 238L412 378L704 378L704 0L543 0Z" fill="#390c14" transform="matrix(0.0015,0,0,-0.0015,8.782124999999999,1.095)" fill-rule="nonzero"></path><path d="M593 648L340 648L340 0L270 0L270 648L17 648L17 710L593 710Z" fill="#a5497e" transform="matrix(0.00075,0,0,-0.00075,0,2.095125)" fill-rule="nonzero"></path><path d="M89 0L89 710L389 710Q435 710 473 691Q511 672 539.5 639.5Q568 607 583.5 567.5Q599 528 599 487Q599 436 579.5 391Q560 346 524.5 315Q489 284 441 274L615 0L536 0L369 262L159 262L159 0ZM159 324L391 324Q433 324 464 347Q495 370 512 407.5Q529 445 529 487Q529 530 509.5 566.5Q490 603 457.5 625.5Q425 648 385 648L159 648Z" fill="#a5497e" transform="matrix(0.00075,0,0,-0.00075,0.46499999999999997,2.095125)" fill-rule="nonzero"></path><path d="M309 710L368 710L663 0L589 0L497 222L178 222L87 0L12 0ZM481 277L338 628L193 277Z" fill="#a5497e" transform="matrix(0.00075,0,0,-0.00075,0.96,2.095125)" fill-rule="nonzero"></path><path d="M89 0L89 710L330 710Q443 710 518.5 662.5Q594 615 632 534.5Q670 454 670 356Q670 248 628.5 168Q587 88 510.5 44Q434 0 330 0ZM600 356Q600 441 568.5 507Q537 573 477 610.5Q417 648 330 648L159 648L159 62L330 62Q418 62 478 101Q538 140 569 206.5Q600 273 600 356Z" fill="#a5497e" transform="matrix(0.00075,0,0,-0.00075,1.4745,2.095125)" fill-rule="nonzero"></path><path d="M89 0L89 710L159 710L159 0Z" fill="#a5497e" transform="matrix(0.00075,0,0,-0.00075,2.01825,2.095125)" fill-rule="nonzero"></path><path d="M593 648L340 648L340 0L270 0L270 648L17 648L17 710L593 710Z" fill="#a5497e" transform="matrix(0.00075,0,0,-0.00075,2.2117500000000003,2.095125)" fill-rule="nonzero"></path><path d="M89 0L89 710L159 710L159 0Z" fill="#a5497e" transform="matrix(0.00075,0,0,-0.00075,2.67675,2.095125)" fill-rule="nonzero"></path><path d="M375 -5Q300 -5 239 25Q178 55 134 106.5Q90 158 66 222.5Q42 287 42 355Q42 426 67 490.5Q92 555 137.5 605.5Q183 656 244 685.5Q305 715 376 715Q451 715 512 684Q573 653 616.5 601Q660 549 684 485Q708 421 708 354Q708 283 683 218.5Q658 154 613 103.5Q568 53 507 24Q446 -5 375 -5ZM112 355Q112 297 131 243.5Q150 190 185 148.5Q220 107 268.5 82.5Q317 58 375 58Q436 58 484.5 83.5Q533 109 567.5 151.5Q602 194 620 247Q638 300 638 355Q638 413 619 466Q600 519 564.5 561Q529 603 481 627Q433 651 375 651Q315 651 266.5 626Q218 601 183.5 558.5Q149 516 130.5 463Q112 410 112 355Z" fill="#a5497e" transform="matrix(0.00075,0,0,-0.00075,2.8702500000000004,2.095125)" fill-rule="nonzero"></path><path d="M159 581L159 0L89 0L89 710L147 710L613 118L613 709L683 709L683 0L618 0Z" fill="#a5497e" transform="matrix(0.00075,0,0,-0.00075,3.4410000000000003,2.095125)" fill-rule="nonzero"></path><path d="M309 710L368 710L663 0L589 0L497 222L178 222L87 0L12 0ZM481 277L338 628L193 277Z" fill="#a5497e" transform="matrix(0.00075,0,0,-0.00075,4.0275,2.095125)" fill-rule="nonzero"></path><path d="M89 0L89 710L159 710L159 62L569 62L569 0Z" fill="#a5497e" transform="matrix(0.00075,0,0,-0.00075,4.542,2.095125)" fill-rule="nonzero"></path><path d="M0 0 " fill="#a5497e" transform="matrix(0.00075,0,0,-0.00075,4.965,2.095125)" fill-rule="nonzero"></path><path d="M86 710L340 87L593 710L666 710L372 0L308 0L13 710Z" fill="#a5497e" transform="matrix(0.00075,0,0,-0.00075,5.13825,2.095125)" fill-rule="nonzero"></path><path d="M566 62L566 0L89 0L89 710L557 710L557 648L159 648L159 392L506 392L506 333L159 333L159 62Z" fill="#a5497e" transform="matrix(0.00075,0,0,-0.00075,5.655,2.095125)" fill-rule="nonzero"></path><path d="M159 581L159 0L89 0L89 710L147 710L613 118L613 709L683 709L683 0L618 0Z" fill="#a5497e" transform="matrix(0.00075,0,0,-0.00075,6.11925,2.095125)" fill-rule="nonzero"></path><path d="M566 62L566 0L89 0L89 710L557 710L557 648L159 648L159 392L506 392L506 333L159 333L159 62Z" fill="#a5497e" transform="matrix(0.00075,0,0,-0.00075,6.70575,2.095125)" fill-rule="nonzero"></path><path d="M31 55L514 648L39 648L39 710L595 710L595 655L118 62L594 62L594 0L31 0Z" fill="#a5497e" transform="matrix(0.00075,0,0,-0.00075,7.17,2.095125)" fill-rule="nonzero"></path><path d="M378 -5Q294 -5 236 25Q178 55 144 105.5Q110 156 94.5 220Q79 284 79 352L79 710L148 710L148 352Q148 297 159.5 244Q171 191 197 149Q223 107 267 82.5Q311 58 377 58Q445 58 489.5 83.5Q534 109 559.5 151Q585 193 596 245.5Q607 298 607 352L607 710L677 710L677 352Q677 281 661 216Q645 151 609.5 102Q574 53 517 24Q460 -5 378 -5Z" fill="#a5497e" transform="matrix(0.00075,0,0,-0.00075,7.64925,2.095125)" fill-rule="nonzero"></path><path d="M566 62L566 0L89 0L89 710L557 710L557 648L159 648L159 392L506 392L506 333L159 333L159 62Z" fill="#a5497e" transform="matrix(0.00075,0,0,-0.00075,8.223,2.095125)" fill-rule="nonzero"></path><path d="M89 0L89 710L159 710L159 62L569 62L569 0Z" fill="#a5497e" transform="matrix(0.00075,0,0,-0.00075,8.68725,2.095125)" fill-rule="nonzero"></path><path d="M309 710L368 710L663 0L589 0L497 222L178 222L87 0L12 0ZM481 277L338 628L193 277Z" fill="#a5497e" transform="matrix(0.00075,0,0,-0.00075,9.132000000000001,2.095125)" fill-rule="nonzero"></path><path d="M159 581L159 0L89 0L89 710L147 710L613 118L613 709L683 709L683 0L618 0Z" fill="#a5497e" transform="matrix(0.00075,0,0,-0.00075,9.646500000000001,2.095125)" fill-rule="nonzero"></path><path d="M0 0 " fill="#a5497e" transform="matrix(0.00075,0,0,-0.00075,10.233,2.095125)" fill-rule="nonzero"></path><path d="M623 183Q623 130 596 88.5Q569 47 523.5 23.5Q478 0 424 0L89 0L89 710L431 710Q481 710 517.5 683.5Q554 657 573.5 615.5Q593 574 593 529Q593 476 566 431Q539 386 491 364Q552 346 587.5 297Q623 248 623 183ZM553 195Q553 231 537 261.5Q521 292 493.5 311Q466 330 431 330L159 330L159 61L424 61Q460 61 489 80Q518 99 535.5 129.5Q553 160 553 195ZM159 649L159 387L403 387Q438 387 465 405.5Q492 424 508 454Q524 484 524 518Q524 554 509 583.5Q494 613 468 631Q442 649 409 649Z" fill="#a5497e" transform="matrix(0.00075,0,0,-0.00075,10.431750000000001,2.095125)" fill-rule="nonzero"></path><path d="M309 710L368 710L663 0L589 0L497 222L178 222L87 0L12 0ZM481 277L338 628L193 277Z" fill="#a5497e" transform="matrix(0.00075,0,0,-0.00075,10.9275,2.095125)" fill-rule="nonzero"></path><path d="M89 0L89 709L159 709L159 297L550 710L627 710L337 398L642 0L563 0L292 356L159 218L159 0Z" fill="#a5497e" transform="matrix(0.00075,0,0,-0.00075,11.442,2.095125)" fill-rule="nonzero"></path><path d="M566 62L566 0L89 0L89 710L557 710L557 648L159 648L159 392L506 392L506 333L159 333L159 62Z" fill="#a5497e" transform="matrix(0.00075,0,0,-0.00075,11.931750000000001,2.095125)" fill-rule="nonzero"></path><path d="M89 0L89 710L389 710Q435 710 473 691Q511 672 539.5 639.5Q568 607 583.5 567.5Q599 528 599 487Q599 436 579.5 391Q560 346 524.5 315Q489 284 441 274L615 0L536 0L369 262L159 262L159 0ZM159 324L391 324Q433 324 464 347Q495 370 512 407.5Q529 445 529 487Q529 530 509.5 566.5Q490 603 457.5 625.5Q425 648 385 648L159 648Z" fill="#a5497e" transform="matrix(0.00075,0,0,-0.00075,12.396,2.095125)" fill-rule="nonzero"></path><path d="M93 710L325 328L559 710L635 710L360 264L360 0L290 0L290 266L16 710Z" fill="#a5497e" transform="matrix(0.00075,0,0,-0.00075,12.871500000000001,2.095125)" fill-rule="nonzero"></path><g clip-path="url(&quot;#SvgjsClipPath1001&quot;)"><path d=" M 8.317046740120027 -1.39345409637769 L 8.145380847651829 -0.5703131864324544 C 8.108488501711228 -0.3940227114853698 7.936266268493689 -0.2500347712968334 7.761714358388293 -0.2500347712968334 L 6.4529575168629805 -0.2500347712968334 C 6.292251620564151 -0.257444189876066 6.150335565295553 -0.35714187897508465 6.088867267716839 -0.5058124308058582 L 6.088867267716839 -0.5063340002583647 C 6.079902368306666 -0.5268725203746514 6.073153346096294 -0.5483085339236604 6.068734686850103 -0.570278415135621 L 5.897625135131246 -1.39345409637769 C 5.860767560487478 -1.5697098000279412 5.9731136205573065 -1.7143236235594852 6.147630759365871 -1.7143236235594852 L 8.06700634458857 -1.7143236235594852 C 8.089519855670975 -1.7143775078698043 8.111954188011474 -1.7116564253943563 8.133802005806192 -1.7062219113972228 C 8.26923620697363 -1.6745452599816812 8.348723391535568 -1.5461000894778287 8.317046740120027 -1.39345409637769 Z" fill="#ee810a" transform="matrix(1,0,0,1,0,0)" fill-rule="nonzero"></path><path d=" M 8.129803306670315 -1.6013864514434828 L 7.958137414202117 -0.7782455414982472 C 7.921279839558348 -0.6019550665511617 7.748466494294636 -0.4573760143164525 7.5739145841892395 -0.4573760143164525 L 6.265157742663927 -0.4573760143164525 C 6.2032404531389425 -0.45829856148519843 6.142575182626683 -0.47495458841874205 6.088867267716839 -0.5057776595090249 L 6.088867267716839 -0.5063340002583647 C 6.079902368306666 -0.5268725203746514 6.073153346096294 -0.5483085339236604 6.068734686850103 -0.570278415135621 L 5.897625135131246 -1.39345409637769 C 5.860767560487478 -1.5697098000279412 5.9731136205573065 -1.7143236235594852 6.147630759365871 -1.7143236235594852 L 8.06700634458857 -1.7143236235594852 C 8.089519855670975 -1.7143775078698043 8.111954188011474 -1.7116564253943563 8.133802005806192 -1.7062219113972228 C 8.138465232934518 -1.6713047988509415 8.137112775535307 -1.6358468939933362 8.129803306670315 -1.6013864514434828 Z" fill="#fbaa72" transform="matrix(1,0,0,1,0,0)" fill-rule="nonzero"></path><path d=" M 6.405618891691132 -2.6646553481683526 C 6.678095854208767 -2.392178385650718 6.678095854208765 -1.9504060328031443 6.405618891691132 -1.6779290702855114 C 6.133141929173497 -1.4054521077678768 5.691369576325924 -1.405452107767875 5.418892613808289 -1.6779290702855079 C 5.1464156512906545 -1.9504060328031443 5.146415651290656 -2.392178385650718 5.418892613808291 -2.6646553481683526 C 5.691369576325924 -2.9371323106859855 6.133141929173497 -2.9371323106859872 6.405618891691132 -2.6646553481683526 Z" fill="#e4f0fa" transform="matrix(1,0,0,1,0,0)" fill-rule="nonzero"></path><path d=" M 8.900454240454467 -2.5921112830653907 C 9.095001107891433 -2.397564415628425 9.095001107891433 -2.082141685674914 8.900454240454465 -1.8875948182379485 C 8.7059073730175 -1.6930479508009828 8.390484643063989 -1.6930479508009828 8.195937775627023 -1.8875948182379485 C 8.001390908190057 -2.082141685674914 8.001390908190057 -2.397564415628425 8.195937775627023 -2.5921112830653907 C 8.39048464306399 -2.7866581505023564 8.705907373017501 -2.7866581505023564 8.900454240454467 -2.5921112830653907 Z" fill="#e4f0fa" transform="matrix(1,0,0,1,0,0)" fill-rule="nonzero"></path><path d=" M 5.9459092992093865 -3.329227473330125 C 6.09519139312863 -2.9739779178895027 5.928221809268024 -2.56497428733606 5.572972253827402 -2.4156921934168167 C 5.217722698386783 -2.266410099497575 4.808719067833337 -2.4333796833581776 4.659436973914094 -2.7886292387987996 C 4.51015487999485 -3.1438787942394217 4.67712446385546 -3.5528824247928643 5.032374019296078 -3.702164518712107 C 5.3876235747367005 -3.8514466126313494 5.796627205290143 -3.684477028770747 5.9459092992093865 -3.329227473330125 Z" fill="#e4f0fa" transform="matrix(1,0,0,1,0,0)" fill-rule="nonzero"></path><path d=" M 8.242397767426864 -3.563949462099721 C 8.617247823397395 -3.4746475822507463 8.848730309936766 -3.098378170570726 8.759428430087787 -2.7235281146001924 C 8.67012655023881 -2.348678058629659 8.293857138558788 -2.1171955720902886 7.919007082588255 -2.206497451939267 C 7.5441570266177225 -2.295799331788242 7.312674540078353 -2.672068743468266 7.401976419927331 -3.0469187994387994 C 7.491278299776307 -3.421768855409333 7.86754771145633 -3.6532513419486996 8.242397767426864 -3.563949462099721 Z" fill="#e4f0fa" transform="matrix(1,0,0,1,0,0)" fill-rule="nonzero"></path><path d=" M 5.8161559866497825 -2.5474091243991714 C 5.575823834158943 -2.54765824218866 5.381052891875381 -2.7424136289301533 5.380784578994469 -2.9827457607576533 C 5.381072013304188 -3.223069958828413 5.575831766388454 -3.41781415726424 5.8161559866497825 -3.418082397116136 C 6.05647456021978 -3.417814120011165 6.251224345903296 -3.2230643343276544 6.251492623008264 -2.9827457607576537 C 6.251224345903346 -2.742427187187748 6.0564745602198755 -2.547677401504195 5.816155986649878 -2.5474091243991714 Z M 5.8161559866497825 -3.3657168240845166 C 5.604742236386059 -3.3654868596851664 5.433414887722272 -3.1941595110213847 5.433184923322923 -2.9827457607576537 C 5.4334148877222574 -2.7713320104939507 5.604742236386031 -2.6000046618301567 5.816155986649761 -2.599774697430791 C 6.027561804240577 -2.600023782352981 6.198877965054457 -2.7713399431668577 6.199127049976642 -2.9827457607576537 C 6.1988779650544785 -3.194151578348402 6.027561804240623 -3.3654677391623005 5.816155986649829 -3.3657168240845166 Z M 5.8161559866497825 -2.7960238967604454 C 5.713072076137497 -2.7961197442521524 5.629529970144279 -2.8796618502453644 5.629434122652576 -2.9827457607576537 C 5.629529937960612 -3.085835315252594 5.713066451782989 -3.1693873852228043 5.816155986649772 -3.169502396051696 C 5.919229655491883 -3.1693491566511285 6.002743803813644 -3.0858194563464445 6.002877850646996 -2.9827457607576537 C 6.002743759535221 -2.879677716264899 5.9192240311425515 -2.7961579878722267 5.816155986649793 -2.7960238967604454 Z M 5.8161559866497825 -3.1171368230200764 C 5.741979209813483 -3.117041002119512 5.681876322177207 -3.05692255990569 5.6817996956841945 -2.9827457607576537 C 5.681876358435606 -2.908574608173177 5.741984834065303 -2.8484661325434786 5.816155986649779 -2.8483894697920644 C 5.890327139234262 -2.8484661325434772 5.950435614863959 -2.9085746081731747 5.950512277615374 -2.9827457607576533 C 5.9504356511223655 -3.0569225599056873 5.890332763486086 -3.1170410021195107 5.8161559866497825 -3.1171368230200764 Z" fill="#2f0e54" transform="matrix(1,0,0,1,0,0)" fill-rule="nonzero"></path><path d=" M 4.852295638418383 -2.6988728934069632 C 4.66880167974843 -2.6990645111360347 4.520092853348405 -2.84775778221949 4.519882040687786 -3.031251719840727 C 4.520092816797469 -3.214751303268956 4.668796054990185 -3.363454541461655 4.8522956384183935 -3.363665317571326 C 5.0357895760396225 -3.363454504910705 5.184482847123075 -3.2147456785106803 5.184674464852147 -3.0312517198407276 C 5.1844636887909274 -2.847771340056866 5.035776018202345 -2.6990836694682367 4.852295638418436 -2.6988728934069632 Z M 4.852295638418383 -3.3112649732428725 C 4.697706503265195 -3.3111116691268 4.572420113107725 -3.185840834766469 4.572247613719405 -3.031251719840727 C 4.572439271365678 -2.876676184469283 4.697720060214955 -2.7514265058233303 4.852295638418369 -2.751273237735416 C 5.006857638111114 -2.751445664086189 5.132117271183709 -2.8766897427525917 5.132308891820532 -3.0312517198407276 C 5.132136427764845 -3.1858272761351065 5.00687119471268 -3.311092509187231 4.852295638418344 -3.3112649732428725 Z M 4.852295638418383 -2.8849341027643303 C 4.77151278630221 -2.885010744599643 4.706039087043077 -2.950468888216281 4.705943250045156 -3.0312517198407276 C 4.706039050545847 -3.1120401969006712 4.771507161358471 -3.177508307713282 4.852295638418397 -3.1776041082139583 C 4.933084115478312 -3.177508307713272 4.998552226290929 -3.112040196900654 4.998648026791617 -3.0312517198407276 C 4.998533074090464 -2.9504768221449313 4.933070561148281 -2.885029862187531 4.852295638418379 -2.8849341027643303 Z M 4.852295638418383 -3.125238535182339 C 4.8004933634584575 -3.1251238010396865 4.758527871109926 -3.0831583086911563 4.75841313696727 -3.0313560337312286 C 4.758527871109923 -2.9795537587713072 4.800493363458454 -2.937588266422775 4.852295638418379 -2.9374735322801184 C 4.8771948259106 -2.937473532280118 4.901074207507435 -2.9473646959986084 4.918680591829215 -2.9649710803203924 C 4.936286976151003 -2.982577464642176 4.946178139869495 -3.006456846239009 4.946178139869495 -3.031356033731229 C 4.9460824606028915 -3.0831662241565128 4.904105828843658 -3.125142855915743 4.852295638418379 -3.125238535182339 Z" fill="#2f0e54" transform="matrix(1,0,0,1,0,0)" fill-rule="nonzero"></path><path d=" M 8.884931560008745 -2.129527679051229 C 8.701451180224833 -2.1297384551124736 8.552763509636225 -2.2784261257010803 8.55255273357498 -2.4619065054849933 C 8.55274435130407 -2.6454004641549824 8.701437622387541 -2.794109290554992 8.88493156000878 -2.794320103215592 C 9.068425497629981 -2.7941092905549723 9.21711876871344 -2.6454004641549473 9.21731038644251 -2.4619065054849933 C 9.217099610381258 -2.278426125701067 9.068411939792643 -2.1297384551124665 8.88493156000873 -2.129527679051229 Z M 8.884931560008745 -2.7419545301839725 C 8.730350379275567 -2.741762909495637 8.605090733007728 -2.616487708819963 8.6049183066066 -2.4619065054849933 C 8.60510992724343 -2.3073445283968366 8.730369560316035 -2.1821004497304433 8.884931560008766 -2.1819280233796823 C 9.039493559701476 -2.182100449730455 9.164753192774072 -2.3073445283968574 9.16494481341089 -2.4619065054849933 C 9.164772387009748 -2.6164877088199887 9.039512740741895 -2.741762909495651 8.88493156000872 -2.7419545301839725 Z M 8.884931560008745 -2.3155541171117626 C 8.804143082948816 -2.315649917612448 8.738674972136199 -2.3811180284250666 8.738579171635514 -2.4619065054849942 C 8.738674972136206 -2.5426949825449388 8.804143082948833 -2.6081630933575495 8.884931560008763 -2.608258893858225 C 8.965801485452307 -2.6082589302906483 9.031381041766537 -2.5427416231993076 9.031457804866143 -2.46187173418816 C 9.031342698829778 -2.3810290098998577 8.965774366242481 -2.315554035166272 8.884931560008738 -2.3155541171117626 Z M 8.884931560008745 -2.5558933208266055 C 8.833121369583463 -2.555797641560005 8.791144737824233 -2.5138210098007727 8.791049058557633 -2.462010819375495 C 8.791049058557636 -2.4101609455480792 8.83308168618133 -2.3681283179243846 8.884931560008745 -2.368128317924384 C 8.93678143383616 -2.3681283179243846 8.978814061459854 -2.4101609455480792 8.978814061459854 -2.462010819375495 C 8.978641947733408 -2.51376668545955 8.936687624384206 -2.5556588542556433 8.884931560008742 -2.5557542356392706 Z" fill="#2f0e54" transform="matrix(1,0,0,1,0,0)" fill-rule="nonzero"></path><path d=" M 6.198411259710802 -3.979244825415056 L 6.326570332990158 -4.011398115478769 C 6.371273681447825 -4.022613550273973 6.4166048118853105 -3.9954662324318138 6.427820246680515 -3.950762883974148 L 6.810435937046577 -2.425703638021689 C 6.8216513718417815 -2.3810002895640237 6.794504053999628 -2.3356691591265344 6.749800705541958 -2.3244537243313275 L 6.621641632262605 -2.2923004342676165 C 6.576938283804942 -2.2810849994724123 6.531607153367453 -2.3082323173145713 6.520391718572249 -2.352935665772236 L 6.137767566814066 -3.8780286377966116 C 6.126552132018862 -3.922731986254277 6.153699449861019 -3.9680631166917664 6.198402798318686 -3.9792785514869724 Z" fill="#fac221" transform="matrix(1,0,0,1,0,0)" fill-rule="nonzero"></path><path d=" M 6.601187555265234 -2.263675342235816 C 6.550927439494963 -2.2636744755322304 6.5071165446589845 -2.2978802330841424 6.494926472141309 -2.3466396564811305 L 6.112442206970119 -3.8717087356091677 C 6.09778028442388 -3.9304235417792097 6.133419014451022 -3.989925131632468 6.1921032480162275 -4.004708945998241 L 6.320235476848577 -4.036872395569454 C 6.378865216542742 -4.050774750418343 6.437870462050498 -4.015328375827606 6.453131373347155 -3.9570374980391767 L 6.835615638518341 -2.4319684189111395 C 6.85027756106458 -2.3732536127410975 6.814638831037438 -2.313752022887839 6.755954597472233 -2.2989682085220666 L 6.627822368639883 -2.2668395302476867 C 6.619105574886959 -2.264706877909016 6.610161391504086 -2.2636443182643142 6.601187555265231 -2.263675342235816 Z M 6.3468702902232295 -3.9878100957370406 C 6.342180352056616 -3.987803321035558 6.337509071485421 -3.9872194109641583 6.332961771489728 -3.9860715308953534 L 6.204794771360547 -3.9539080813241396 C 6.1900335060985014 -3.9502295896082016 6.177340758456225 -3.940832430216711 6.169513888672164 -3.9277876472432776 C 6.161687018888102 -3.9147428642698445 6.159368465374332 -3.8991211884012476 6.1630692151600535 -3.8843654876566505 L 6.545553480331243 -2.359296408528613 C 6.553460955501809 -2.3287387406802242 6.584412261111062 -2.3101679573146727 6.615096073998732 -2.3175708523281195 L 6.743263074127917 -2.3496995306025 C 6.773979554862176 -2.3573936370184883 6.79265452736572 -2.3885185911910556 6.78498863032841 -2.4192421242699886 L 6.40250436515722 -3.9443459746948597 C 6.3961771155817075 -3.9699090932465824 6.3732047293352 -3.9878419122602624 6.346870290223226 -3.987775324440207 Z" fill="#2f0e54" transform="matrix(1,0,0,1,0,0)" fill-rule="nonzero"></path><path d=" M 5.637382082932739 -3.9306805702614387 L 5.759538813868549 -3.9810424130873443 C 5.802148476764362 -3.998609199044896 5.8509311271289235 -3.978307936124266 5.868497913086475 -3.9356982732284562 L 6.46779058959822 -2.4820653216004427 C 6.485357375555772 -2.4394556587046345 6.46505611263515 -2.3906730083400696 6.422446449739336 -2.3731062223825177 L 6.300289718803526 -2.322744379556612 C 6.257680055907716 -2.30517759359906 6.208897405543151 -2.325478856519691 6.1913306195855995 -2.3680885194154992 L 5.59202468995732 -3.8217536175516544 C 5.574457903999768 -3.8643632804474635 5.594759166920397 -3.9131459308120276 5.637368829816207 -3.9307127167695803 Z" fill="#fac221" transform="matrix(1,0,0,1,0,0)" fill-rule="nonzero"></path><path d=" M 6.268495787159967 -2.2902406130167967 C 6.224041658212926 -2.290145545360838 6.1839567324365845 -2.316978801573259 6.16710268559277 -2.358114184436266 L 5.567819384663178 -3.8117977911646257 C 5.544836627354904 -3.8677570622469126 5.571459049280399 -3.9317628383248033 5.62734784484255 -3.9549164489323183 L 5.749499410619496 -4.005265286747581 C 5.805481445884723 -4.0272764830814545 5.868830390472983 -4.0009028879820425 5.892652839684018 -3.9456672839745424 L 6.491901369316775 -2.492018448543017 C 6.503095800179462 -2.4651709135878077 6.503095800179462 -2.4349628442384 6.491901369316775 -2.408115309283191 C 6.480754759453962 -2.3812727069128448 6.459349967868999 -2.3599930895476735 6.43244245173107 -2.349004104665825 L 6.31032565725096 -2.298655266850563 C 6.297071195039912 -2.2931275489835885 6.282856695119229 -2.290268106771781 6.268495787159967 -2.2902406130167967 Z M 5.791259738116821 -3.9611752823623925 C 5.783777322251911 -3.9611752969601657 5.776368500724399 -3.9596982591755734 5.769458135002065 -3.956828870258174 L 5.647341340521958 -3.906480032442912 C 5.618154924805843 -3.8943977125854015 5.604250742434427 -3.8609747954532154 5.61625580115259 -3.831756515547195 L 6.215539102082179 -2.3780729088188353 C 6.227921037785578 -2.3491874573826386 6.261046592228087 -2.3354069801040893 6.290262618977895 -2.346987369449468 L 6.412414184754841 -2.39733620726473 C 6.4264634868223744 -2.4031006508582786 6.437637495576912 -2.4142246080618452 6.443464952827377 -2.4282478901499287 C 6.449306530695441 -2.4422676770332945 6.449306530695441 -2.458039937277081 6.443464952827373 -2.472059724160447 L 5.844216423194613 -3.925743330888807 C 5.835408763165116 -3.9472214985197325 5.814473607023171 -3.9612286712765536 5.791259738116821 -3.9611752823623925 Z" fill="#2f0e54" transform="matrix(1,0,0,1,0,0)" fill-rule="nonzero"></path><path d=" M 7.525859467855124 -3.3361218690147556 C 7.832284023629715 -3.0296973132401632 7.832284023629716 -2.5328850479975493 7.525859467855126 -2.2264604922229587 C 7.2194349120805335 -1.9200359364483663 6.7226226468379195 -1.9200359364483663 6.416198091063327 -2.2264604922229587 C 6.109773535288737 -2.5328850479975493 6.109773535288737 -3.0296973132401632 6.416198091063329 -3.3361218690147556 C 6.7226226468379195 -3.642546424789346 7.2194349120805335 -3.642546424789346 7.525859467855124 -3.3361218690147556 Z" fill="#94b6f5" transform="matrix(1,0,0,1,0,0)" fill-rule="nonzero"></path><path d=" M 4.274398632234172 -2.6966175575517326 C 4.453627761708637 -2.667563190058406 4.575368435352628 -2.498716088885903 4.5463140678593 -2.3194869594114422 C 4.5172597003659725 -2.140257829936978 4.348412599193472 -2.018517156292983 4.169183469719008 -2.04757152378631 C 3.9899543402445437 -2.0766258912796403 3.868213666600553 -2.2454729924521395 3.89726803409388 -2.424702121926604 C 3.9263224015872074 -2.6039312514010646 4.095169502759708 -2.725671925045063 4.274398632234172 -2.6966175575517326 Z" fill="#e4f0fa" transform="matrix(1,0,0,1,0,0)" fill-rule="nonzero"></path><path d=" M 4.7413404302219035 -1.5270106475161032 C 4.7413404400640395 -1.4517402583292522 4.680342097508067 -1.3907107861470096 4.605071718021723 -1.3906723926310374 C 4.529782130906092 -1.3906915869179737 4.4687526573323275 -1.4517210604917383 4.468733463045343 -1.5270106475161032 C 4.468733463045343 -1.5631698009075814 4.483097630800977 -1.5978479695154268 4.508666013366053 -1.6234163520805058 C 4.534234395931136 -1.6489847346455853 4.56891256453898 -1.6633489024012156 4.605071717930457 -1.6633489024012151 C 4.641221649761544 -1.6633396816560952 4.675887311443539 -1.6489703334565857 4.70144265249737 -1.6234019506364592 C 4.726997993551201 -1.5978335678163331 4.741349653319553 -1.5631605793465875 4.7413404302219035 -1.5270106475161032 Z" fill="#e64482" transform="matrix(1,0,0,1,0,0)" fill-rule="nonzero"></path><path d=" M 4.778928202099181 -2.0013606789220466 C 4.723895150705509 -2.0014181747567292 4.679296389911517 -2.04601693555072 4.6792388940768355 -2.101049986944392 C 4.679315504171264 -2.1560751073055417 4.723903081738037 -2.200662684872314 4.778928202099184 -2.200739294966738 C 4.83396690100345 -2.200681836610091 4.878575629099302 -2.1560886624640605 4.878652281418358 -2.1010499869443926 C 4.878594754718037 -2.0460033737203593 4.833974832037526 -2.0013990088929496 4.7789282020991735 -2.0013606789220466 Z M 4.778928202099181 -2.1483389506382853 C 4.75281353126206 -2.1483198050110275 4.731642807634849 -2.1271646366546695 4.731604467108454 -2.1010499869443926 C 4.731623643798599 -2.074921757171496 4.752799972326269 -2.0537454286438184 4.7789282020991735 -2.053726251953666 C 4.805062076573375 -2.053745397623441 4.826248367811409 -2.0749161335815627 4.826286708386739 -2.101049986944392 C 4.826248340917186 -2.127178205551561 4.805056448876293 -2.1483389788082485 4.778928202099181 -2.148338950638285 Z" fill="#2f0e54" transform="matrix(1,0,0,1,0,0)" fill-rule="nonzero"></path><path d=" M 9.460431293904051 -3.359666618435445 C 9.460431293904051 -3.2109342816679023 9.339859936694243 -3.090362924458093 9.1911275999267 -3.090362924458093 C 9.042395263159158 -3.090362924458093 8.92182390594935 -3.2109342816679023 8.92182390594935 -3.359666618435445 C 8.92182390594935 -3.508398955202988 9.042395263159158 -3.6289703124127968 9.1911275999267 -3.6289703124127968 C 9.339859936694243 -3.6289703124127968 9.460431293904051 -3.508398955202988 9.460431293904051 -3.359666618435445 Z" fill="#e4f0fa" transform="matrix(1,0,0,1,0,0)" fill-rule="nonzero"></path><path d=" M 7.707192964952981 -0.2939856904946865 L 6.398366580834001 -0.2939856904946865 C 6.2118533446177935 -0.2939856904946865 6.028156583445121 -0.446979396563163 5.988899789319824 -0.6353702828083909 L 5.817303439445297 -1.4585111927536265 C 5.795868879986802 -1.5463444473102608 5.8158149581808125 -1.6391571232997193 5.871442348615439 -1.7104292383141058 C 5.926079658770821 -1.7759972156507855 6.007757782863418 -1.812902298391088 6.093074594633727 -1.8105705731952901 L 8.012658807637429 -1.8105705731952901 C 8.097973527993144 -1.8128919041758476 8.179647325299154 -1.7759887764316837 8.234291053655717 -1.7104292383141062 C 8.289930578794586 -1.6391629812900814 8.309889587388799 -1.5463497481289217 8.288464734122691 -1.458511192753627 L 8.116833612951329 -0.6353702828083909 C 8.077437733638693 -0.44711848175049784 7.8937757437628555 -0.2939856904946865 7.707192964952981 -0.2939856904946865 Z M 6.093074594633723 -1.758205000163671 C 6.023612108067258 -1.7603288216232986 5.956997878564746 -1.7305445747784254 5.912263851098249 -1.6773617350252148 C 5.866695814817771 -1.6182716470617775 5.850658973879558 -1.5415842934698571 5.868730187462404 -1.4691859808815861 L 6.040326537336931 -0.6460450709363506 C 6.079108890415707 -0.47720700709822594 6.225439989006041 -0.35475771207394313 6.3984708947245 -0.34635126352630596 L 7.70729727884348 -0.34635126352630596 C 7.880332716319973 -0.35474611920257937 8.026669895403618 -0.4772005023600516 8.06544163623105 -0.6460450709363506 L 8.237072757402412 -1.4691859808815861 C 8.255124370768247 -1.541600855004348 8.239075996374982 -1.618294921937208 8.193504322469728 -1.6773965063220486 C 8.14874630135402 -1.7305634697754648 8.082124481812755 -1.7603325735274153 8.012658807637429 -1.7582050001636707 Z" fill="#2f0e54" transform="matrix(1,0,0,1,0,0)" fill-rule="nonzero"></path><path d=" M 7.614805629265721 -0.46926779783359285 C 7.5476404578278995 -0.4693826430635166 7.493220935577536 -0.5238021653138789 7.4931060903476165 -0.590967336751699 C 7.49322093557754 -0.6581325081895217 7.547640457827903 -0.7125520304398831 7.6148056292657245 -0.7126668756698051 C 7.681970800703542 -0.7125520304398814 7.7363903229539055 -0.6581325081895191 7.736505168183829 -0.590967336751699 C 7.736390322953902 -0.5238021653138762 7.681970800703542 -0.4693826430635153 7.614805629265721 -0.46926779783359285 Z M 7.614805629265721 -0.6605099304191882 C 7.576398315319487 -0.6605099304191882 7.545263035598232 -0.6293746506979332 7.545263035598232 -0.590967336751699 C 7.545263035598232 -0.5525600228054652 7.576398315319487 -0.5214247430842098 7.614805629265721 -0.5214247430842098 C 7.653212943211955 -0.5214247430842098 7.68434822293321 -0.5525600228054652 7.68434822293321 -0.590967336751699 C 7.6843290260637005 -0.6293610709594715 7.653199368272684 -0.6604751639215789 7.61480562926571 -0.6604751591223543 Z" fill="#2f0e54" transform="matrix(1,0,0,1,0,0)" fill-rule="nonzero"></path><path d=" M 8.058974175019976 -2.2578685356645805 L 6.046654913360673 -2.2578685356645805 C 5.7595794452695515 -2.2578685356645796 5.526858796993032 -2.025147887388056 5.526858796993032 -1.7380724192969321 C 5.526877999741455 -1.451010530336335 5.759593023756988 -1.2183110735840676 6.046654913360268 -1.2183110742261185 L 6.954185760721408 -1.2183110742261185 C 6.954185759746871 -1.1720663359264223 6.972558790078747 -1.1277161695746223 7.005262018610672 -1.0950194620476665 C 7.037965247142601 -1.0623227545207103 7.082319076549485 -1.043958568833523 7.128563814136044 -1.0439677919016823 C 7.1748025277078185 -1.0439677919017227 7.219147423754677 -1.062336049266357 7.251843131528538 -1.0950317570402173 C 7.284538839302396 -1.1277274648140776 7.302907096667031 -1.1720723608609371 7.302907096667031 -1.2183110742261185 L 7.3313847887738675 -1.2183110742261185 C 7.331375566024885 -1.151178684819926 7.358037339191242 -1.0867927076576716 7.405503846803342 -1.0393196790251915 C 7.4529703544154415 -0.991846650392711 7.51735266838719 -0.9651760326429133 7.584485058426797 -0.9651760332764576 C 7.651626669754105 -0.9651668105275624 7.716021491131727 -0.9918322470879164 7.763501040647274 -1.0393052755830645 C 7.810980590162817 -1.0867783040782117 7.8376548713066185 -1.151169462265277 7.8376548706731874 -1.2183110742261185 L 8.05914803150414 -1.2183110742261185 C 8.346128444635653 -1.2184262573849862 8.578716345905981 -1.451091983690874 8.578735520090788 -1.7380724192969326 C 8.578735520090788 -2.025134310063209 8.346036062818023 -2.2578493335582808 8.058974173856978 -2.2578685356646586 Z" fill="#fe5cad" transform="matrix(1,0,0,1,0,0)" fill-rule="nonzero"></path><path d=" M 7.584345973239362 -0.9388889328701473 C 7.458523897298679 -0.9390473272335109 7.348273962206658 -1.023150245461129 7.314868422777842 -1.1444568397512453 C 7.284535205911457 -1.0679982436459063 7.210645740993694 -1.0177649807165463 7.128389957858467 -1.0176806914954133 C 7.0277967440884055 -1.0177941787060143 6.9428036363202565 -1.0923099056424528 6.929532911266282 -1.1920239738198077 L 6.046654913360673 -1.1920239738198077 C 5.745308412367091 -1.192388000254795 5.501109579505869 -1.4365868331160172 5.500745553070882 -1.7379333341095986 C 5.501128692213388 -2.0392719044770216 5.745316342993288 -2.283459555256905 6.046654913360694 -2.283842694399388 L 8.05893940372314 -2.283842694399388 C 8.360285904716719 -2.2834786679644 8.604484737577941 -2.0392798351031782 8.604848764012928 -1.7379333341095977 C 8.604484737577959 -1.436586833116046 8.36028590471675 -1.1923880002548115 8.05893940372317 -1.1920239738198086 L 7.862412034018817 -1.1920239738198086 C 7.848762584049879 -1.0486175298559255 7.728400444544935 -0.9390468939179479 7.584345973239362 -0.9388889328701469 Z M 7.302698468886032 -1.2443895468514272 L 7.3311413896960325 -1.2443895468514272 C 7.338091519012984 -1.2443987767789806 7.344760149534988 -1.2416443163091118 7.349677897462893 -1.2367330905933143 C 7.354595645390791 -1.2318218648775172 7.357358953637448 -1.2251568957813386 7.357358947508676 -1.2182067603356175 C 7.357512255792628 -1.0929336794509092 7.459038099038178 -0.9914233909538135 7.584311201942512 -0.9912892771986002 C 7.7095786584283985 -0.991423427424158 7.811094534853986 -1.0929393038497484 7.811228685079545 -1.218206760335617 C 7.811228678950801 -1.2251568957814478 7.813991987197486 -1.231821864877615 7.818909735125409 -1.236733090593392 C 7.823827483053332 -1.2416443163091686 7.830496113575347 -1.2443987767790095 7.837446242892298 -1.2443895468514268 L 8.058904632426309 -1.2443895468514268 C 8.331501205717032 -1.2446196186355487 8.552426975681364 -1.4655453885998782 8.552657047465484 -1.738141961890601 C 8.55233112129298 -2.0106649963158776 8.331427780258096 -2.2314749979108863 8.058904632426309 -2.231685749148771 L 6.046620142063844 -2.231685749148771 C 5.774156953795099 -2.2313983108487285 5.553348216791285 -2.0106051292332228 5.553041583508833 -1.7381419618906002 C 5.5532523674926395 -1.4656052562132649 5.774083527520119 -1.2446963113459875 6.04662014206378 -1.2443895468514277 L 6.95415098942458 -1.2443895468514277 C 6.96109509615852 -1.2443895468514277 6.967754790359415 -1.2416310111921596 6.972665015320267 -1.2367207862313072 C 6.977575240281119 -1.231810561270454 6.980333775940391 -1.225150867069559 6.980333775940391 -1.2182067603356175 C 6.9804296151879015 -1.1364061353402413 7.04672839781303 -1.07012290850643 7.128529043045798 -1.0700462645270319 C 7.210316109574656 -1.0701420676787978 7.276593735702626 -1.1364196938067672 7.2766895388543915 -1.2182067603356175 C 7.276631777854924 -1.232653646748846 7.28828644152421 -1.2444172325085017 7.302733240182864 -1.2444938607419287 Z" fill="#2f0e54" transform="matrix(1,0,0,1,0,0)" fill-rule="nonzero"></path><path d=" M 7.052971015026078 -1.970414224740014 C 6.605361828624726 -1.9709124199353694 6.242621762688561 -2.333636930980197 6.242104372863153 -2.781246095606104 C 6.242698382247291 -3.228800942662896 6.605416050884607 -3.59144084164569 7.052971015026088 -3.5919388812848587 C 7.500593758744536 -3.5914406492480997 7.86333942515224 -3.2286949828403957 7.8638376571889985 -2.781072239121935 C 7.863224495813686 -2.3335309717569817 7.500512425354472 -1.9709122234428547 7.052971015026042 -1.9704142247400134 Z M 7.052971015026078 -3.5397471647374084 C 6.634266673732174 -3.539268086979676 6.294964600214332 -3.1999504584224776 6.294504717191607 -2.781246095606104 C 6.294983757939857 -2.362555311757943 6.634280231178039 -2.023258838519819 7.052971015026138 -2.0227797977716335 C 7.471661798874177 -2.023258838519853 7.810958272112327 -2.362555311758004 7.811437312860548 -2.781246095606104 C 7.810996588803235 -3.1999640372623737 7.471688914515276 -3.5393028221426874 7.052971015026202 -3.5397819360342417 Z" fill="#2f0e54" transform="matrix(1,0,0,1,0,0)" fill-rule="nonzero"></path><path d=" M 7.80420488311913 -2.7397291671866126 C 7.7368327560224905 -2.739743349769542 7.670111498088847 -2.7265479451817454 7.607816598602138 -2.7008896286233206 C 7.502311422293541 -2.903848623129855 7.292598163902653 -3.0311994256556414 7.063854430935038 -3.031216948543894 C 6.830878000130401 -3.0311386589155944 6.618089991942689 -2.8989815677108677 6.514746111336546 -2.6901800691985267 C 6.446052405104435 -2.72271790786663 6.371001592473611 -2.739628090965727 6.294991515347274 -2.739694395889779 C 6.009317914215188 -2.739694395889779 5.77773370364849 -2.508110185323081 5.77773370364849 -2.2224365841909948 C 5.777752904834163 -1.936790140486336 6.009310300344321 -1.7052327449755222 6.29495674404971 -1.705213543789044 C 6.459353705364961 -1.7052372891196534 6.6139036048066195 -1.7835840671872112 6.711099624556699 -1.916171001679372 C 6.814237288227524 -1.843207264665022 6.937482496733981 -1.8040613595183532 7.063819659638206 -1.8041378832810473 C 7.182361048512785 -1.8040838456778086 7.298352198892925 -1.8385549656814062 7.397624109242148 -1.9033403931477206 C 7.495407226942024 -1.7782373318337976 7.645351481469515 -1.7051313314226513 7.8041353405254625 -1.7051440011953765 C 8.089808941657548 -1.705144001195377 8.321393152224243 -1.9367282117620743 8.321393152224243 -2.222401812894161 C 8.321411597306756 -2.359587114434793 8.266932637440927 -2.4911609903262066 8.169941022208445 -2.5881786890911394 C 8.072949406975958 -2.685196387856072 7.941390184660342 -2.73971072458378 7.8042048831192545 -2.7397291671866126 Z" fill="#fac221" transform="matrix(1,0,0,1,0,0)" fill-rule="nonzero"></path><path d=" M 7.80420488311913 -1.6790307572732344 C 7.64559455192288 -1.6787198983522074 7.494872289363094 -1.7481744666557217 7.392060701748754 -1.8689515805791475 C 7.292951056656825 -1.8093797836643657 7.179489718172022 -1.777922179806465 7.063854430935045 -1.777955096765238 C 6.940646030194824 -1.7778040671996767 6.820057397602131 -1.8135179233207062 6.716802117237439 -1.8807390502057864 C 6.613588404666579 -1.7536198728978079 6.458735487462988 -1.6795825371644932 6.294991515347277 -1.6790655285700677 C 5.995000541258456 -1.6794104342218885 5.751895822784512 -1.9225151526958328 5.75155091713269 -2.2225061267846624 C 5.7518957845437555 -2.522483544432319 5.994979349083419 -2.7655826633336864 6.294956744050435 -2.7659467249992566 C 6.366329809403577 -2.766000763839517 6.436996497842099 -2.7518154131994663 6.502819556522571 -2.7242211687987625 C 6.614210233079895 -2.930120128374054 6.829721665231812 -3.0581660307298435 7.063819659638206 -3.0575388202470384 C 7.293997875013876 -3.0577669834413057 7.506448253636208 -2.933974906430695 7.619743153416117 -2.7336094189438738 C 7.678824474926095 -2.7550235590796253 7.741188624150418 -2.7659667022454024 7.804031026634963 -2.765946724999256 C 8.10403555821074 -2.7656017823288135 8.347145876941727 -2.5224759085195263 8.347471624849554 -2.222471355487828 C 8.347126922619367 -1.9225481531488617 8.104127959810661 -1.679471425695208 7.804204883119031 -1.6790307572732344 Z M 7.403465687110224 -1.9383550890593013 L 7.418278259561401 -1.9195438174722457 C 7.510992780499905 -1.8006180688504405 7.653444238447847 -1.7311890249316693 7.804239654415966 -1.7314311016016872 C 8.075320180262217 -1.7317185367658134 8.29500804949657 -1.9513908506741562 8.295314679598938 -2.222471355487828 C 8.295008085793302 -2.493557506045339 8.075325804973481 -2.713239786865162 7.804239654415969 -2.7135463806708024 C 7.740277761659165 -2.7135885285183354 7.67693053984128 -2.7010655790355007 7.617795960793426 -2.6766888060270335 L 7.595716187303999 -2.6676134975534262 L 7.5846241436140325 -2.6887892173251764 C 7.483857760785451 -2.883326404630904 7.282974911039961 -3.0053906362470864 7.06388920223187 -3.0052080185122523 C 6.840675994564521 -3.005745411625543 6.636669343513166 -2.8790340441581392 6.538216736699322 -2.6787055412433904 L 6.526811751337856 -2.6557564853331197 L 6.503619296349747 -2.666674672538915 C 6.438421087877995 -2.697615683350942 6.367159045389098 -2.713673396925107 6.294991515347277 -2.7136854658581377 C 6.023913296824645 -2.7133597539662295 5.804242202056212 -2.4936886591978 5.803916490164301 -2.2226104406751634 C 5.804165567605793 -1.9514971112524029 6.02384349604025 -1.7317569599236022 6.294956744050431 -1.7314311016016877 C 6.45115267018922 -1.730943352570356 6.59809607260976 -1.8054367514387164 6.690028218675447 -1.9317137713640562 L 6.705223275391798 -1.952333150386467 L 6.726086053492047 -1.9375901205289592 C 6.8247844682120515 -1.8676951820002614 6.942774611405593 -1.8302202487758663 7.063715345747706 -1.8303554410936909 C 7.177184843225444 -1.8303270812198957 7.288212030247799 -1.8633090421090164 7.38326356364982 -1.9252810814498138 Z" fill="#2f0e54" transform="matrix(1,0,0,1,0,0)" fill-rule="nonzero"></path><path d=" M 8.01780495956882 -1.4347971683130125 C 7.863605542033593 -1.434950505324181 7.738640469114522 -1.5599155782432534 7.7384871321033515 -1.7141149957784827 C 7.73865959524284 -1.8683064791729977 7.863613476174198 -1.9932603601044034 8.017804959568767 -1.993432823243953 C 8.17198851120201 -1.9932412430624245 8.296931206852765 -1.86829854741167 8.297122787034294 -1.7141149957784827 C 8.296950323894805 -1.5599235123839676 8.171996442963447 -1.434969631452562 8.017804959568878 -1.4347971683130125 Z M 8.01780495956882 -1.9410672502123336 C 7.892518299436993 -1.9409330999446823 7.790986855402622 -1.8394016559103128 7.79085270513497 -1.7141149957784827 C 7.7909868554026325 -1.5888283356466375 7.892518299437008 -1.4872968916122749 8.017804959568835 -1.4871627413446324 C 8.143078040453549 -1.4873160496285882 8.244588328950638 -1.5888418928741448 8.244722442705843 -1.7141149957784831 C 8.244588328950627 -1.8393880986828393 8.143078040453531 -1.9409139419283872 8.017804959568807 -1.9410672502123334 Z" fill="#2f0e54" transform="matrix(1,0,0,1,0,0)" fill-rule="nonzero"></path><path d=" M 6.268113302894793 -1.835779763399755 C 6.173302823303356 -1.8359138254847718 6.096477158621113 -1.9127394901670174 6.096343096536092 -2.007549969758453 C 6.096458051290526 -2.1023683785675207 6.173294894085672 -2.1792052213626913 6.268113302894765 -2.1793201761171512 C 6.362939644788977 -2.1792243434597425 6.439787676596083 -2.102376311652635 6.4398835092534945 -2.007549969758453 C 6.439768554499061 -1.9127315609493856 6.362931711703915 -1.835894718154215 6.268113302894822 -1.835779763399755 Z M 6.268113302894793 -2.126954603085532 C 6.202205362402157 -2.1268779240683537 6.148800924323183 -2.0734579297883666 6.14874344086455 -2.007549969758453 C 6.1488009243231865 -1.9416420097285343 6.202205362402161 -1.8882220154485496 6.268113302894797 -1.8881453364313743 C 6.334021262924704 -1.8882028198900094 6.387441257204689 -1.9416072579689827 6.387517936221872 -2.0075151984616193 C 6.387479593502878 -2.0734502970216306 6.334048387496015 -2.12689706249445 6.268113302894822 -2.126954603085532 Z" fill="#2f0e54" transform="matrix(1,0,0,1,0,0)" fill-rule="nonzero"></path><path d=" M 8.269653462535633 -3.03851892087898 C 8.21159979223226 -3.038576387137761 8.164546950337279 -3.0856136743742644 8.164470289613558 -3.1436673225042235 C 8.164546950337282 -3.2017209706341867 8.211599792232263 -3.2487582578706884 8.26965346253564 -3.248815724129467 C 8.32770148651369 -3.248758222329879 8.374744362361291 -3.201715346482276 8.37480186416088 -3.1436673225042235 C 8.374725243477627 -3.0856272307696853 8.327693554270176 -3.0385955415622328 8.269653462535636 -3.03851892087898 Z M 8.269653462535633 -3.1964501510978476 C 8.240518194826556 -3.196411840374015 8.216908944665843 -3.172802590213304 8.216870633942012 -3.1436673225042235 C 8.216908944665843 -3.114532054795143 8.240518194826556 -3.090922804634432 8.269653462535633 -3.090884493910599 C 8.298783085768019 -3.090922841332417 8.322382368214694 -3.114537680326519 8.322401519832422 -3.1436673225042235 C 8.322382368214697 -3.17279696468192 8.298783085768026 -3.1964118036760256 8.26965346253564 -3.1964501510978476 Z" fill="#2f0e54" transform="matrix(1,0,0,1,0,0)" fill-rule="nonzero"></path><path d=" M 7.759176053719429 -2.190655618884952 C 7.665165396761587 -2.1908659557315113 7.589007036080638 -2.2670243164124577 7.588796699234081 -2.361034973370301 C 7.588892315305113 -2.455121431783157 7.665089741757246 -2.531396610711245 7.759176053719447 -2.531588184339818 C 7.8533302679652905 -2.531492353004067 7.929633433353196 -2.455189187616162 7.929729264688945 -2.361034973370301 C 7.929518610778061 -2.2669565943279624 7.853254598676276 -2.1907703233190405 7.759176053719429 -2.190655618884952 Z M 7.759176053719429 -2.479257382605032 C 7.69388362001083 -2.4792573826050317 7.640953644484696 -2.4263274070788974 7.640953644484696 -2.3610349733703004 C 7.640953645457628 -2.2957425379000522 7.693883621772482 -2.2428125631626363 7.759176055481078 -2.242812564135569 C 7.824468487428025 -2.2428125641355696 7.877398462954158 -2.2957425396617035 7.877398462954158 -2.361034973370301 C 7.877463103321002 -2.3924316564052734 7.86503610585028 -2.422564556374513 7.842858093363237 -2.444788229475498 C 7.8206800808761905 -2.467011902576484 7.790572803295934 -2.479500848224495 7.759176053719418 -2.479500781682868 Z" fill="#2f0e54" transform="matrix(1,0,0,1,0,0)" fill-rule="nonzero"></path><path d=" M 7.438689010802807 -2.318648762529966 L 7.2723083554533385 -2.40550746202066 L 7.106414498259544 -2.3177099375154553 L 7.137639122816246 -2.5027975505614775 L 7.002865576288652 -2.6334680840626894 L 7.188544301380848 -2.660937408561348 L 7.271126131360992 -2.829508655611342 L 7.35468155765248 -2.66142420671702 L 7.540499367932011 -2.634928478529707 L 7.406456018637925 -2.503527747794986 L 7.438689010802807 -2.318648762529966 Z" fill="#ee810a" transform="matrix(1,0,0,1,0,0)" fill-rule="nonzero"></path><path d=" M 6.9324884714971535 -1.327632031471412 L 6.784188890501233 -1.4050677095201607 L 6.636341336364151 -1.326797520347402 L 6.664158373831146 -1.4917525525266861 L 6.544058314567392 -1.6082016256228973 L 6.709534916199183 -1.632715389890687 L 6.783145751596221 -1.7829273922124633 L 6.857591098117267 -1.633132645452692 L 7.023206784936393 -1.6095229349025795 L 6.903732609015647 -1.492413207166527 L 6.9324884714971535 -1.327632031471412 Z" fill="#e64482" transform="matrix(1,0,0,1,0,0)" fill-rule="nonzero"></path><path d=" M 6.895317955181877 -2.573591910914981 C 6.895317955181877 -2.5119097647173296 6.84531469594954 -2.461906505484994 6.783632549751893 -2.4619065054849933 C 6.721950403554242 -2.461906505484994 6.671947144321905 -2.5119097647173296 6.671947144321905 -2.573591910914981 C 6.671947142926275 -2.603209525836665 6.683715073979229 -2.631613572230442 6.704661150596706 -2.6525531275959766 C 6.725607227214184 -2.6734926829615118 6.754014936572993 -2.685251768886549 6.783632549905139 -2.6852425450480872 C 6.813250163084049 -2.685251768845945 6.841657872426715 -2.6734926828819168 6.862603949015455 -2.6525531274876326 C 6.88355002560419 -2.6316135720933485 6.895317956618161 -2.603209525683419 6.895317955181877 -2.573591910914981 Z" fill="#ee810a" transform="matrix(1,0,0,1,0,0)" fill-rule="nonzero"></path><path d=" M 7.0265100581355995 -2.183005933581528 C 7.026510058135603 -2.1546761913681585 7.015256111860339 -2.1275067616402064 6.995223959032 -2.1074746088118657 C 6.975191806203657 -2.0874424559835254 6.948022376475706 -2.076188509708265 6.91969263426234 -2.076188509708265 C 6.891356868010398 -2.076179285825533 6.864178504572514 -2.08742915998459 6.84413883070512 -2.107462312643441 C 6.824099156837722 -2.127495465302292 6.812840437590957 -2.1546701658283065 6.812840439092238 -2.183005933581528 C 6.812840437569843 -2.211341701255172 6.824099156796365 -2.238516401789574 6.844138830648838 -2.2585495544633543 C 6.864178504501314 -2.2785827071371347 6.89135686793081 -2.28983258131644 6.919692634182756 -2.289823357454818 C 6.948022376475706 -2.2898233574547917 6.975191806203657 -2.278569411179531 6.995223959032 -2.2585372583511907 C 7.015256111860339 -2.23850510552285 7.026510058135603 -2.2113356757948974 7.026510058135603 -2.183005933581528 Z" fill="#ee810a" transform="matrix(1,0,0,1,0,0)" fill-rule="nonzero"></path><path d=" M 6.474028922744228 -2.427656778103755 C 6.474028922744235 -2.406972008642626 6.465811930069947 -2.3871344334864415 6.451185589316701 -2.372508092733197 C 6.436559248563455 -2.357881751979952 6.41672167340727 -2.349664759305665 6.396036903946143 -2.3496647593056657 C 6.352957473083087 -2.3496647550281233 6.318029311458552 -2.384577351518244 6.318010113851216 -2.4276567781037546 C 6.318010113851216 -2.4483507694861775 6.326230769919473 -2.4681971888577676 6.3408636315557985 -2.482830050494095 C 6.355496493192128 -2.4974629121304215 6.375342912563717 -2.505683568198678 6.39603690394614 -2.5056835681986778 C 6.416727699327662 -2.505683570254989 6.436570545773325 -2.497461804655284 6.451197886467952 -2.4828279426317703 C 6.465825227162583 -2.468194080608256 6.474038147352072 -2.4483475714289646 6.474028922744235 -2.427656778103755 Z" fill="#ee810a" transform="matrix(1,0,0,1,0,0)" fill-rule="nonzero"></path><path d=" M 7.444182875702538 -2.112559286196362 C 7.444163690161474 -2.073641423193396 7.41261932002358 -2.042097053055471 7.3737014570205766 -2.0420778675143616 C 7.334789224065158 -2.042097064474249 7.303254804900064 -2.073647048505668 7.303254809635376 -2.112559286196362 C 7.303254809635376 -2.151465895223896 7.334794847993006 -2.1830059335815273 7.373701457020541 -2.183005933581528 C 7.412613694711233 -2.1830059383168416 7.444163678742651 -2.151471519151743 7.444182875702538 -2.112559286196362 Z" fill="#ee810a" transform="matrix(1,0,0,1,0,0)" fill-rule="nonzero"></path><path d=" M 8.153691187595093 -2.2509490475946654 C 8.15369119703766 -2.2329173578805985 8.146523379809839 -2.2156252136773444 8.133766529503092 -2.2028814071887313 C 8.121009679196344 -2.1901376007001185 8.103710211236145 -2.182987477396879 8.085678530977852 -2.183005933581539 C 8.067658896780962 -2.183005933581528 8.050377299877177 -2.1901642053985393 8.037635494334673 -2.202906010941045 C 8.024893688792169 -2.2156478164835507 8.017735416975153 -2.2329294133873328 8.017735416975153 -2.250949047594665 C 8.017726191969864 -2.2689747055704124 8.024880391100034 -2.286265236668971 8.037623196644695 -2.299014563608488 C 8.050366002189357 -2.311763890548005 8.067652870651983 -2.318926935265177 8.085678530988282 -2.3189269329046356 C 8.103716237681756 -2.318945397621796 8.121020981305733 -2.3117905034294255 8.133778833501278 -2.2990391736532056 C 8.14653668569682 -2.286287843876986 8.15370042822111 -2.2689867613720835 8.153691187595093 -2.2509490475946654 Z" fill="#ee810a" transform="matrix(1,0,0,1,0,0)" fill-rule="nonzero"></path><path d=" M 6.122560654348742 -2.3357562405721684 C 6.122560658052908 -2.2850145512587625 6.081436574056976 -2.2438749016332515 6.030694888244767 -2.243855703040631 C 6.006321350135494 -2.2438557030405812 5.982946088816814 -2.253538053302792 5.965711394830713 -2.270772747288894 C 5.948476700844612 -2.2880074412749956 5.938794350582398 -2.311382702593673 5.938794350582398 -2.3357562405721684 C 5.938794350582398 -2.3601297785506627 5.948476700844612 -2.383505039869341 5.965711394830713 -2.4007397338554424 C 5.982946088816814 -2.4179744278415436 6.006321350135494 -2.4276567781037555 6.030694888113988 -2.427656778103755 C 6.081436573926219 -2.427637579583346 6.122560657980696 -2.3864979300163593 6.122560654348742 -2.3357562405721684 Z" fill="#ee810a" transform="matrix(1,0,0,1,0,0)" fill-rule="nonzero"></path><path d=" M 6.783632549751893 -3.176387112824777 C 6.783632549751893 -3.126342382752835 6.7430632802750985 -3.085773113276039 6.693018550203153 -3.085773113276039 C 6.6429738201312105 -3.085773113276039 6.602404550654416 -3.126342382752835 6.602404550654416 -3.176387112824777 C 6.602404550654416 -3.22643184289672 6.6429738201312105 -3.2670011123735154 6.693018550203153 -3.2670011123735154 C 6.7430632802750985 -3.2670011123735154 6.783632549751893 -3.22643184289672 6.783632549751893 -3.176387112824777 Z" fill="#588ff5" transform="matrix(1,0,0,1,0,0)" fill-rule="nonzero"></path><path d=" M 7.231938879829361 -3.2654711753128307 C 7.231938879829361 -3.195646678558578 7.175334941296121 -3.139042740025336 7.105510444541867 -3.1390427400253356 C 7.035685947787613 -3.139042740025336 6.979082009254373 -3.195646678558578 6.979082009254373 -3.2654711753128307 C 6.97907278274856 -3.2990049087888 6.99238992031718 -3.3311678370637567 7.016101851554065 -3.354879768300641 C 7.039813782790951 -3.378591699537525 7.071976711065908 -3.3919088371061408 7.105510444541871 -3.3918996106003263 C 7.13904417801783 -3.3919088371061394 7.1712071062927905 -3.3785916995375227 7.194919037529672 -3.354879768300638 C 7.218630968766558 -3.3311678370637536 7.2319481063351745 -3.2990049087887963 7.231938879829361 -3.2654711753128307 Z" fill="#588ff5" transform="matrix(1,0,0,1,0,0)" fill-rule="nonzero"></path><path d=" M 7.503085452538901 -3.164008531151964 C 7.503094677139568 -3.143262406297261 7.4948597765826115 -3.12336283182863 7.48019331059059 -3.1086898445089104 C 7.465526844598564 -3.094016857189191 7.4456309328653205 -3.0857731112252136 7.4248848059598025 -3.085773113276039 C 7.404138679054288 -3.085773111225216 7.384242767321048 -3.094016857189195 7.3695763013290225 -3.108689844508916 C 7.354909835337004 -3.123362831828637 7.346674934780044 -3.1432624062972687 7.346684159380718 -3.164008531151964 C 7.346684159817784 -3.184748633788809 7.354923133275051 -3.2046392740638074 7.36958859963584 -3.219304739806493 C 7.384254065996629 -3.233970205549179 7.404144706618876 -3.242209178168121 7.424884807607764 -3.2422091777310555 C 7.445624906948698 -3.242209177731056 7.46551554739732 -3.2339702046929504 7.480181013449055 -3.219304738641213 C 7.494846479500797 -3.2046392725894752 7.503085452538901 -3.184748632140854 7.503085452538901 -3.164008531151964 Z" fill="#588ff5" transform="matrix(1,0,0,1,0,0)" fill-rule="nonzero"></path><path d=" M 7.238510654930938 -1.4326413479093203 C 7.2385198790708145 -1.4075885856997252 7.22857417329573 -1.3835587628354018 7.210862454974805 -1.365840523263251 C 7.19315073665388 -1.3481222836910995 7.169124576638215 -1.3381677327139285 7.144071812730498 -1.3381677344120364 C 7.11899495889147 -1.3381308006241506 7.094933046172091 -1.3480690461694782 7.07719123215017 -1.3657912920141682 C 7.059449418128249 -1.3835135378588581 7.049484625124705 -1.4075644685816133 7.049493885342702 -1.4326413479093212 C 7.049493883631957 -1.4576941117694129 7.059448434597005 -1.4817202717900981 7.077166674160221 -1.4994319901199598 C 7.094884913723444 -1.5171437084498214 7.118914736582745 -1.5270894142370315 7.143967498792357 -1.5270801901097881 C 7.1690323057962075 -1.527107875848634 7.193080002055851 -1.5171703213386878 7.210813288118036 -1.4994566012412682 C 7.228546574180214 -1.4817428811438496 7.238510670221299 -1.4577061701559 7.238510654930938 -1.4326413479093203 Z" fill="#e64482" transform="matrix(1,0,0,1,0,0)" fill-rule="nonzero"></path><path d=" M 6.35059081898444 -1.4727674244554616 C 6.35059081898444 -1.427427590341933 6.313835621273494 -1.3906723926309912 6.268495787159967 -1.3906723926309903 C 6.22315595304644 -1.3906723926309912 6.186400755335498 -1.427427590341933 6.186400755335498 -1.4727674244554616 C 6.186400755335498 -1.5181072585689903 6.22315595304644 -1.554862456279932 6.268495787159967 -1.5548624562799325 C 6.313835621273494 -1.554862456279932 6.35059081898444 -1.5181072585689903 6.35059081898444 -1.4727674244554616 Z" fill="#e64482" transform="matrix(1,0,0,1,0,0)" fill-rule="nonzero"></path><path d=" M 6.0004438598686285 -1.5717265352442986 C 6.0004438598686285 -1.5339166579412993 5.985423944592402 -1.4976553747757375 5.95868832395562 -1.4709197541389547 C 5.931952703318835 -1.4441841335021728 5.895691420153277 -1.4291642182259459 5.857881542850276 -1.4291642182259463 C 5.820071665547278 -1.4291642182259459 5.783810382381716 -1.4441841335021723 5.757074761744931 -1.4709197541389547 C 5.73033914110815 -1.4976553747757375 5.715319225831923 -1.5339166579412988 5.715319225831923 -1.5717265352442986 C 5.715319225831923 -1.6095364125472988 5.73033914110815 -1.6457976957128602 5.757074761744931 -1.6725333163496425 C 5.783810382381716 -1.6992689369864253 5.820071665547278 -1.7142888522626518 5.857881542850276 -1.7142888522626518 C 5.895691420153273 -1.7142888522626518 5.931952703318835 -1.6992689369864253 5.95868832395562 -1.6725333163496425 C 5.985423944592402 -1.6457976957128602 6.0004438598686285 -1.6095364125472984 6.0004438598686285 -1.5717265352442986 Z" fill="#e64482" transform="matrix(1,0,0,1,0,0)" fill-rule="nonzero"></path><path d=" M 7.714912192850072 -1.4361184775926947 C 7.714912192850072 -1.3613586409963512 7.6543073708726475 -1.3007538190189276 7.579547534276305 -1.3007538190189272 C 7.543646594681043 -1.3007538190189272 7.509216064104571 -1.3150154117434023 7.483830266265791 -1.3404012095821818 C 7.458444468427011 -1.3657870074209608 7.444182875702538 -1.4002175379974315 7.444182875702538 -1.4361184775926947 C 7.444182875702538 -1.5108783141890383 7.504787697679959 -1.5714831361664618 7.579547534276305 -1.5714831361664623 C 7.61544847387157 -1.5714831361664623 7.649879004448039 -1.5572215434419872 7.675264802286819 -1.5318357456032077 C 7.7006506001255985 -1.5064499477644286 7.714912192850072 -1.472019417187958 7.714912192850072 -1.4361184775926947 Z" fill="#e64482" transform="matrix(1,0,0,1,0,0)" fill-rule="nonzero"></path><path d=" M 8.468162796159483 -1.8619973212123981 C 8.468162795923124 -1.8461356156965367 8.46186175806837 -1.8309235652917062 8.450645838999954 -1.8197076465575521 C 8.439429919931541 -1.808491727823398 8.424217869338925 -1.8021906904219995 8.408356164714252 -1.8021906906583576 C 8.392494460980767 -1.8021906906583576 8.377282410482046 -1.808491728286433 8.36606649158076 -1.819707647187717 C 8.354850572679474 -1.8309235660890013 8.3485495350514 -1.8461356165877247 8.3485495350514 -1.8619973212123981 C 8.348568730816353 -1.8950140313534678 8.375339449884208 -1.9217691860497705 8.40835616560544 -1.9217691804696055 C 8.441372881326672 -1.9217691860497705 8.468143600394527 -1.895014031353468 8.468162796159483 -1.8619973212123986 Z" fill="#e64482" transform="matrix(1,0,0,1,0,0)" fill-rule="nonzero"></path><path d=" M 6.294017919035934 -1.222066374284163 C 6.293064202649184 -1.228956568793802 6.289390267700689 -1.2351776339244478 6.283816945877604 -1.2393396573726396 C 6.2782436240545145 -1.2435016808208315 6.27123538182224 -1.24525781013819 6.264358002836751 -1.244215690367258 C 6.2500535359311264 -1.2421379012153828 6.240138970872284 -1.2288614114270073 6.242208686753656 -1.214555774168074 L 6.3245818889528 -0.6456278153743455 C 6.326447420191766 -0.6327553915898543 6.337479603574657 -0.6232040381912465 6.35048650509394 -0.6232003289165804 C 6.351755304370098 -0.6231904530465746 6.353022815249222 -0.6232834813679777 6.3542765764488145 -0.6234784992912497 C 6.368581043354446 -0.6255562884431249 6.378495608413289 -0.6388327782315009 6.376425892531913 -0.6531384154904343 Z" fill="#2f0e54" transform="matrix(1,0,0,1,0,0)" fill-rule="nonzero"></path><path d=" M 6.699694639195233 -0.62320032891658 C 6.692747702688312 -0.6231910848104767 6.686082636134003 -0.6259466518480976 6.6811704058724715 -0.6308588821096301 C 6.676258175610936 -0.6357711123711631 6.673502608573315 -0.6424361789254727 6.673511852679418 -0.6493831154323901 L 6.673511852679418 -1.218311074226119 C 6.673511852575942 -1.2252551805699068 6.6762703881359755 -1.231914874811907 6.68118061302366 -1.236825099845928 C 6.6860908379113475 -1.241735324879949 6.692750532071134 -1.2444938606384541 6.699694638805074 -1.2444938607419291 C 6.706638745929176 -1.2444938607419296 6.713298440130075 -1.2417353250826615 6.718208665090923 -1.2368251001218087 C 6.723118890051776 -1.2319148751609554 6.725877425711047 -1.225255180960061 6.725877425711047 -1.2183110742261194 L 6.725877425711047 -0.6493831154323897 C 6.725886669817147 -0.6424361789254749 6.723131102779529 -0.6357711123711649 6.718218872517994 -0.6308588821096319 C 6.7133066422564625 -0.6259466518480985 6.706641575702154 -0.6231910848104771 6.699694639195236 -0.6232003289165804 Z" fill="#2f0e54" transform="matrix(1,0,0,1,0,0)" fill-rule="nonzero"></path></g></g><defs><clipPath id="SvgjsClipPath1001"><path d=" M 3.8992839347991124 -4.040071354878159 h 5.5611821304017734 v 3.790071354878159 h -5.5611821304017734 Z"></path></clipPath></defs></svg>